<svg class="w-10 h-10" viewBox="0 0 205 39" fill="none" xmlns="http://www.w3.org/2000/svg">
                          <path d="M1 34.1347C11.1842 36.0384 16.6219 37.7687 24.4467 31.382C27.9327 28.5367 31.0806 25.547 32.9281 21.3668C34.9534 16.7845 36.5016 4.30185 28.4111 10.4729C23.7482 14.0296 22.0384 19.2975 22.3564 25.0187C23.1447 39.1999 41.3992 38.9003 51.8372 36.8427C61.8179 34.8752 72.1668 29.0887 76.2245 19.3281C78.1431 14.7127 77.8465 6.66995 70.6262 10.4592C65.1536 13.3312 63.6562 20.9809 63.9982 26.5151C64.5613 35.625 77.9388 37.19 84.8535 36.8461C95.7995 36.3018 106.068 25.9496 111.554 17.1623C113.598 13.888 114.98 4.61775 108.743 9.69723C96.6664 19.5325 106.978 36.5207 121.144 35.1266C132.503 34.0088 142.282 21.3057 148.566 12.8961C149.797 11.2476 154.068 -2.96101 148.229 2.07428C143.478 6.17149 141.239 14.8679 143.623 20.6391C154.058 45.9043 188.217 17.5132 203.525 12.3881" stroke="currentColor" stroke-width="2" stroke-linecap="round"/>
                          <path d="M5.03278 52.8131C21.2369 42.8951 37.5408 30.93 55.3242 23.8507C58.6666 22.5202 61.8253 21.5107 65.3745 21.1413" stroke="currentColor" stroke-width="2.40851" stroke-linecap="round"/>
                          <path d="M2.74896 71.0228C18.3094 61.3239 33.7476 51.2604 49.7649 42.3159C55.2969 39.2267 60.988 36.1918 67.1175 34.4831" stroke="currentColor" stroke-width="2.40851" stroke-linecap="round"/>
                          <path d="M1.48685 83.403C22.9611 70.0363 44.2167 56.67 67.2376 46.1422" stroke="currentColor" stroke-width="2.40851" stroke-linecap="round"/>
                          <path d="M46.9234 2C40.2598 36.1161 35.4971 71.2339 34.0016 106" stroke="currentColor" stroke-width="2.40851" stroke-linecap="round"/>
                          <path d="M27.7211 7.34874C24.5074 29.1677 23.0639 50.8448 21.9814 72.8558" stroke="currentColor" stroke-width="2.40851" stroke-linecap="round"/>
                        </svg>

