<svg xmlns="http://www.w3.org/2000/svg" version="1.1" xmlns:xlink="http://www.w3.org/1999/xlink" width="512" height="512" x="0" y="0" viewBox="0 0 512 512" style="enable-background:new 0 0 512 512" xml:space="preserve" class=""><g><path fill="#ffffff" d="M478.541 93.959A27.111 27.111 0 0 0 451.5 68.346H279.855a27.115 27.115 0 0 0-26.973 24.678H41.578A35.618 35.618 0 0 0 6 128.6v231.424A35.618 35.618 0 0 0 41.578 395.6h211.2v.342a27.11 27.11 0 0 0 27.078 27.078H449l44.874 20.632-15.163-49.026A35.641 35.641 0 0 0 506 360.024V128.6a35.641 35.641 0 0 0-27.459-34.641z" opacity="1" data-original="#ffffff" class=""></path><rect width="477.103" height="279.681" x="17.449" y="104.472" fill="#776cff" rx="24.129" opacity="1" data-original="#776cff" class=""></rect><path fill="#0038a6" d="M494.551 128.6v14.26H17.449V128.6a24.13 24.13 0 0 1 24.129-24.13h428.844a24.13 24.13 0 0 1 24.129 24.13z" opacity="1" data-original="#0038a6"></path><path fill="#ff3d81" d="M190.193 142.86v241.293H41.578a24.129 24.129 0 0 1-24.129-24.129V142.86z" opacity="1" data-original="#ff3d81"></path><path fill="#fcc836" d="M475.358 178.506 451.5 167.538H279.855a15.622 15.622 0 0 1-15.629-15.629V95.424A15.622 15.622 0 0 1 279.855 79.8H451.5a15.622 15.622 0 0 1 15.629 15.629v56.485z" opacity="1" data-original="#fcc836"></path><path fill="#65ced2" d="m206.645 301.894 23.855-10.968h171.647a15.622 15.622 0 0 0 15.629-15.626v-56.488a15.623 15.623 0 0 0-15.629-15.629H230.5a15.623 15.623 0 0 0-15.63 15.629V275.3z" opacity="1" data-original="#65ced2"></path><path fill="#fcc836" d="M475.358 422.541 451.5 411.573H279.855a15.622 15.622 0 0 1-15.629-15.629v-56.485a15.622 15.622 0 0 1 15.629-15.629H451.5a15.622 15.622 0 0 1 15.629 15.629v56.485z" opacity="1" data-original="#fcc836"></path><circle cx="36.642" cy="126.408" r="5.484" fill="#ff3d81" opacity="1" data-original="#ff3d81"></circle><circle cx="58.578" cy="126.408" r="5.484" fill="#fcc836" opacity="1" data-original="#fcc836"></circle><circle cx="80.514" cy="126.408" r="5.484" fill="#65ced2" opacity="1" data-original="#65ced2"></circle><circle cx="55.836" cy="183.99" r="19.194" fill="#65ced2" opacity="1" data-original="#65ced2"></circle><path fill="#ffffff" d="M91.482 164.796h76.775v13.71H91.482z" opacity="1" data-original="#ffffff" class=""></path><path fill="#0038a6" d="M154.33 193.9H91.482a2.5 2.5 0 0 1 0-5h62.848a2.5 2.5 0 0 1 0 5z" opacity="1" data-original="#0038a6"></path><circle cx="55.836" cy="249.797" r="19.194" fill="#776cff" opacity="1" data-original="#776cff" class=""></circle><path fill="#ffffff" d="M91.482 230.603h76.775v13.71H91.482z" opacity="1" data-original="#ffffff" class=""></path><path fill="#0038a6" d="M154.33 259.708H91.482a2.5 2.5 0 1 1 0-5h62.848a2.5 2.5 0 0 1 0 5z" opacity="1" data-original="#0038a6"></path><circle cx="55.836" cy="315.604" r="19.194" fill="#fcc836" opacity="1" data-original="#fcc836"></circle><path fill="#ffffff" d="M91.482 296.41h76.775v13.71H91.482z" opacity="1" data-original="#ffffff" class=""></path><g fill="#0038a6"><path d="M154.33 325.516H91.482a2.5 2.5 0 0 1 0-5h62.848a2.5 2.5 0 0 1 0 5zM434.228 111.688H295.989a2.5 2.5 0 0 1 0-5h138.239a2.5 2.5 0 1 1 0 5zM295.989 136.365a2.5 2.5 0 0 1-.02-5l73.8-.6h.021a2.5 2.5 0 0 1 .021 5l-73.8.6zM382.131 235.076H243.892a2.5 2.5 0 0 1 0-5h138.239a2.5 2.5 0 0 1 0 5zM243.892 259.754a2.5 2.5 0 0 1-.02-5l73.8-.6h.021a2.5 2.5 0 0 1 .02 5l-73.8.6zM431.486 358.465H293.248a2.5 2.5 0 0 1 0-5h138.238a2.5 2.5 0 0 1 0 5zM293.247 383.143a2.5 2.5 0 0 1-.02-5l73.8-.6h.021a2.5 2.5 0 0 1 .02 5l-73.8.6z" fill="#0038a6" opacity="1" data-original="#0038a6"></path></g></g></svg>